<?xml version="1.0" encoding="UTF-8" standalone="no"?>
<svg
   xmlns="http://www.w3.org/2000/svg"
   version="1.1"
   width="43"
   height="63">
  <path
     d="m 17.629195,9.1005453 c -0.112056,2.6484417 3.101667,4.9525927 6.135213,4.0357677 3.934354,-0.987149 4.447604,-6.1434945 0.843954,-7.7512813 -3.039126,-1.6229475 -7.187241,0.7667262 -6.979167,3.7155136 z M 3.712188,17.25922 C 3.4089622,11.440042 6.8679464,5.5342094 12.956047,2.7048775 c 7.51756,-3.9695607 17.977966,-1.6969066 23.365246,4.0126921 6.16297,6.1889224 4.755977,16.2079424 -2.106914,21.5939524 -1.185529,1.635815 -4.239124,1.21421 -4.696328,3.186186 -0.691013,0.972427 -0.855799,2.050158 -0.819135,3.168203 0.674456,2.000108 -2.545743,1.633216 -2.173009,3.759574 0.391658,5.264544 -0.119114,10.53738 -0.241078,15.806257 -0.326897,2.184998 0.773019,4.574232 -0.488272,6.610642 -1.649692,2.325184 -4.854252,2.189143 -6.10831,-0.274767 -1.816307,-1.740626 -5.484389,-3.615254 -4.055761,-6.339626 2.30427,-1.708686 -1.406036,-3.449897 0.286524,-5.080274 3.360885,-1.39256 -1.590091,-2.304318 -0.0976,-4.334645 2.039225,-0.977415 1.366695,-2.518352 -0.145588,-3.540397 1.246822,-1.807151 0.986093,-4.868919 -1.70453,-5.942205 0.100238,-1.805474 1.930619,-4.136876 -1.116198,-5.20493 C 7.5234621,27.489336 3.8202497,22.557619 3.7121656,17.25922 z"
     style="fill:#ffff00;fill-opacity:1;stroke:#000000;stroke-width:1.40742385;stroke-opacity:1" />
</svg>
