<?xml version="1.0" encoding="UTF-8" standalone="no"?>
<svg
   xmlns="http://www.w3.org/2000/svg"
   width="64"
   height="64">
  <path
     d="M 25.470843,9.4933766 C 25.30219,12.141818 30.139101,14.445969 34.704831,13.529144 40.62635,12.541995 41.398833,7.3856498 35.97505,5.777863 31.400921,4.1549155 25.157674,6.5445892 25.470843,9.4933766 z M 4.5246282,17.652051 C 4.068249,11.832873 9.2742983,5.9270407 18.437379,3.0977088 29.751911,-0.87185184 45.495663,1.4008022 53.603953,7.1104009 c 9.275765,6.1889221 7.158128,16.2079421 -3.171076,21.5939521 -1.784316,1.635815 -6.380222,1.21421 -7.068351,3.186186 -1.04003,0.972427 -1.288046,2.050158 -1.232864,3.168203 1.015111,2.000108 -3.831548,1.633216 -3.270553,3.759574 0.589477,5.264544 -0.179276,10.53738 -0.362842,15.806257 -0.492006,2.184998 1.163456,4.574232 -0.734888,6.610642 -2.482919,2.325184 -7.30604,2.189143 -9.193497,-0.274767 -2.733688,-1.740626 -8.254447,-3.615254 -6.104247,-6.339626 3.468112,-1.708686 -2.116197,-3.449897 0.431242,-5.080274 5.058402,-1.39256 -2.393215,-2.304318 -0.146889,-4.334645 3.069198,-0.977415 2.056986,-2.518352 -0.219121,-3.540397 1.876567,-1.807151 1.484149,-4.868919 -2.565455,-5.942205 0.150866,-1.805474 2.905737,-4.136876 -1.679967,-5.20493 C 10.260902,27.882167 4.6872697,22.95045 4.5245945,17.652051 z"
     id="path604"
     style="fill:#ffff00;fill-opacity:1;stroke:#000000;stroke-width:1.72665179;stroke-opacity:1" />
</svg>
