<svg width="16" height="16" viewBox="0 0 16 16" fill="none" xmlns="http://www.w3.org/2000/svg">
<path fill-rule="evenodd" clip-rule="evenodd" d="M2.25 2.85098L2.85 2.25098H13.15L13.75 2.85098V10.151L13.15 10.751H8.913C8.68584 10.7509 8.46541 10.8281 8.288 10.97L5.25 13.4V11.251C5.25 11.1184 5.19732 10.9912 5.10355 10.8974C5.00979 10.8037 4.88261 10.751 4.75 10.751H2.85L2.25 10.151V2.85098ZM13 1.00098H3C2.46957 1.00098 1.96086 1.21169 1.58579 1.58676C1.21071 1.96184 1 2.47054 1 3.00098V10.001C1 10.5314 1.21071 11.0401 1.58579 11.4152C1.96086 11.7903 2.46957 12.001 3 12.001H4V15.001H5.25L9 12.001H13C13.5304 12.001 14.0391 11.7903 14.4142 11.4152C14.7893 11.0401 15 10.5314 15 10.001V3.00098C15 2.47054 14.7893 1.96184 14.4142 1.58676C14.0391 1.21169 13.5304 1.00098 13 1.00098ZM4.875 5.25098H11.125C11.2908 5.25098 11.4497 5.18513 11.5669 5.06792C11.6842 4.95071 11.75 4.79174 11.75 4.62598C11.75 4.46022 11.6842 4.30124 11.5669 4.18403C11.4497 4.06682 11.2908 4.00098 11.125 4.00098H4.875C4.70924 4.00098 4.55027 4.06682 4.43306 4.18403C4.31585 4.30124 4.25 4.46022 4.25 4.62598C4.25 4.79174 4.31585 4.95071 4.43306 5.06792C4.55027 5.18513 4.70924 5.25098 4.875 5.25098ZM6.875 8.25098H11.125C11.2908 8.25098 11.4497 8.18513 11.5669 8.06792C11.6842 7.95071 11.75 7.79174 11.75 7.62598C11.75 7.46022 11.6842 7.30125 11.5669 7.18403C11.4497 7.06682 11.2908 7.00098 11.125 7.00098H6.875C6.70924 7.00098 6.55027 7.06682 6.43306 7.18403C6.31585 7.30125 6.25 7.46022 6.25 7.62598C6.25 7.79174 6.31585 7.95071 6.43306 8.06792C6.55027 8.18513 6.70924 8.25098 6.875 8.25098Z" fill="black"/>
</svg>
