<svg width="16" height="16" viewBox="0 0 16 16" fill="none" xmlns="http://www.w3.org/2000/svg">
<path fill-rule="evenodd" clip-rule="evenodd" d="M13.4686 2.68492L12.9276 2.14392H2.40626L1.86526 2.68492V10.1102L2.40626 10.6512H6.71147C6.92794 10.6511 7.14165 10.7265 7.31497 10.8571L10.4357 13.3978V11.2299C10.4357 11.1049 10.485 10.9851 10.5795 10.8906C10.674 10.7961 10.7938 10.7468 10.9188 10.7468H12.9276L13.4686 10.2058V2.68492ZM2.52747 0.805556H12.7181C13.2412 0.805556 13.7478 1.01961 14.1371 1.40889C14.5264 1.79817 14.7405 2.30481 14.7405 2.82792V9.82792C14.7405 10.351 14.5264 10.8577 14.1371 11.247C13.7478 11.6363 13.2412 11.8503 12.7181 11.8503H11.4686V14.2055H10.4357L6.62747 11.8503H2.52747C2.00436 11.8503 1.49772 11.6363 1.10844 11.247C0.719162 10.8577 0.505107 10.351 0.505107 9.82792V2.82792C0.505107 2.30481 0.719162 1.79817 1.10844 1.40889C1.49772 1.01961 2.00436 0.805556 2.52747 0.805556ZM10.824 5.12016H4.46259C4.30418 5.12016 4.15436 5.05707 4.04541 4.94812C3.93646 4.83917 3.87337 4.68935 3.87337 4.53094C3.87337 4.37253 3.93646 4.22271 4.04541 4.11376C4.15436 4.00481 4.30418 3.94172 4.46259 3.94172H10.824C10.9824 3.94172 11.1322 4.00481 11.2412 4.11376C11.3501 4.22271 11.4132 4.37253 11.4132 4.53094C11.4132 4.68935 11.3501 4.83917 11.2412 4.94812C11.1322 5.05707 10.9824 5.12016 10.824 5.12016ZM8.82403 8.16137H4.46259C4.30418 8.16137 4.15436 8.09828 4.04541 7.98933C3.93646 7.88038 3.87337 7.73056 3.87337 7.57215C3.87337 7.41374 3.93646 7.26392 4.04541 7.15497C4.15436 7.04602 4.30418 6.98293 4.46259 6.98293H8.82403C8.98244 6.98293 9.13226 7.04602 9.24121 7.15497C9.35016 7.26392 9.41325 7.41374 9.41325 7.57215C9.41325 7.73056 9.35016 7.88038 9.24121 7.98933C9.13226 8.09828 8.98244 8.16137 8.82403 8.16137Z" fill="black"/>
</svg>
