<svg width="16" height="17" viewBox="0 0 16 17" fill="none" xmlns="http://www.w3.org/2000/svg">
  <g>
    <path d="M10.75 7.5H12.25V6H10.75V7.5Z" fill="black"/>
    <path d="M7.5 7.5H9V6H7.5V7.5Z" fill="black"/>
    <path d="M4.25 7.5H5.75V6H4.25V7.5Z" fill="black"/>
    <path fill-rule="evenodd" clip-rule="evenodd" d="M2 0.5C0.895786 0.5 0 1.39579 0 2.5V11C0 12.1042 0.895786 13 2 13H3V15.75C3 16.0405 3.16778 16.305 3.43066 16.4287C3.6937 16.5523 4.00473 16.5126 4.22852 16.3271L8.27051 12.9775L13.9941 12.9961C15.1007 12.9991 15.9999 12.1033 16 10.9961V2.5C16 1.39579 15.1042 0.5 14 0.5H2ZM14 2C14.2758 2 14.5 2.22421 14.5 2.5V10.9961C14.4999 11.2727 14.2753 11.4969 13.998 11.4961L8.00195 11.4775L7.87207 11.4893C7.74389 11.5115 7.62281 11.5664 7.52148 11.6504L4.5 14.1543V12.25C4.5 11.8358 4.16421 11.5 3.75 11.5H2C1.72421 11.5 1.5 11.2758 1.5 11V2.5C1.5 2.22421 1.72421 2 2 2H14Z" fill="black"/>
  </g>
</svg>