<svg xmlns="http://www.w3.org/2000/svg" width="24" height="24" viewBox="0 0 24 24">
<g>
<path d="M 2.00 22.00 C2.00,21.45 2.93,21.00 4.06,21.00 C5.19,21.00 5.84,21.45 5.50,22.00 C5.16,22.55 4.23,23.00 3.44,23.00 C2.65,23.00 2.00,22.55 2.00,22.00 ZM 19.00 22.00 C17.79,21.22 17.93,21.03 19.75,21.02 C20.99,21.01 22.00,21.45 22.00,22.00 C22.00,23.25 20.94,23.25 19.00,22.00 ZM 6.25 16.01 C2.33,13.62 2.27,13.04 5.56,9.95 C9.05,6.66 14.95,6.66 18.44,9.95 C21.73,13.04 21.67,13.62 17.75,16.01 C13.64,18.52 10.36,18.52 6.25,16.01 ZM 8.87 14.34 C7.63,12.83 7.71,12.78 9.68,13.83 C10.88,14.47 12.64,14.69 13.59,14.33 C14.77,13.87 15.10,14.03 14.61,14.83 C13.58,16.48 15.15,16.28 17.81,14.42 L 20.07 12.84 L 17.63 10.92 C15.04,8.89 12.46,8.31 13.50,10.00 C13.84,10.55 13.16,11.00 12.00,11.00 C10.84,11.00 10.16,10.55 10.50,10.00 C11.54,8.31 8.96,8.89 6.37,10.92 L 3.93 12.84 L 6.19 14.42 C9.14,16.49 10.61,16.44 8.87,14.34 ZM 3.81 3.32 C4.53,3.03 5.40,3.06 5.73,3.40 C6.06,3.73 5.47,3.96 4.42,3.92 C3.25,3.87 3.01,3.64 3.81,3.32 ZM 18.81 3.32 C19.53,3.03 20.40,3.06 20.73,3.40 C21.06,3.73 20.47,3.96 19.42,3.92 C18.25,3.87 18.01,3.64 18.81,3.32 Z" fill="rgba(0,0,0,1)"/>
</g>
</svg>