<svg width="8" height="10" viewBox="0 0 8 10" fill="none" xmlns="http://www.w3.org/2000/svg">
  <path d="M4.23336 7.46639L7.84736 3.85339C7.89401 3.8071 7.93104 3.75203 7.9563 3.69136C7.98157 3.63069 7.99458 3.56562 7.99458 3.49989C7.99458 3.43417 7.98157 3.3691 7.9563 3.30843C7.93104 3.24776 7.89401 3.19269 7.84736 3.14639C7.75359 3.05266 7.62644 3 7.49386 3C7.36127 3 7.23412 3.05266 7.14036 3.14639L3.99236 6.29339L0.847356 3.14739C0.753055 3.05631 0.626754 3.00592 0.495655 3.00706C0.364557 3.0082 0.239151 3.06078 0.146447 3.15348C0.0537425 3.24619 0.00115811 3.37159 1.89013e-05 3.50269C-0.00112031 3.63379 0.0492769 3.76009 0.140356 3.85439L3.75236 7.46739L4.23336 7.46639Z" fill="black"/>
</svg>