<svg xmlns="http://www.w3.org/2000/svg" width="16" height="16"><path d="M1.5 3.5C.5 3.5 0 4 0 5v6.5c0 1 .5 1.5 1.5 1.5h4c1 0 1.5-.5 1.5-1.5V5c0-1-.5-1.5-1.5-1.5zm2 1.2c.8 0 1.4.2 1.8.6.5.4.7 1 .7 1.7 0 .5-.2 1-.5 1.4-.2.3-.5.7-1 1l-.6.4c-.4.3-.6.4-.75.56-.15.14-.25.24-.35.44H6v1.3H1c0-.6.1-1.1.3-1.5.3-.6.7-1 1.5-1.6.7-.4 1.1-.8 1.28-1 .32-.3.42-.6.42-1 0-.3-.1-.6-.23-.8-.17-.2-.37-.3-.77-.3s-.7.1-.9.5c-.04.2-.1.5-.1.9H1.1c0-.6.1-1.1.3-1.5.4-.7 1.1-1.1 2.1-1.1zM10.54 3.54C9.5 3.54 9 4 9 5v6.5c0 1 .5 1.5 1.54 1.5h4c.96 0 1.46-.5 1.46-1.5V5c0-1-.5-1.46-1.5-1.46zm1.9.95c.7 0 1.3.2 1.7.5.4.4.6.8.6 1.4 0 .4-.1.8-.4 1.1-.2.2-.3.3-.5.4.1 0 .3.1.6.3.4.3.5.8.5 1.4 0 .6-.2 1.2-.6 1.6-.4.5-1.1.7-1.9.7-1 0-1.8-.3-2.2-1-.14-.29-.24-.69-.24-1.29h1.4c0 .3 0 .5.1.7.2.4.5.5 1 .5.3 0 .5-.1.7-.3.2-.2.3-.5.3-.8 0-.5-.2-.8-.6-.95-.2-.05-.5-.15-1-.15v-1c.5 0 .8-.1 1-.14.3-.1.5-.4.5-.9 0-.3-.1-.5-.2-.7-.2-.2-.4-.3-.7-.3-.3 0-.6.1-.75.3-.2.2-.2.5-.2.86h-1.34c0-.4.1-.7.19-1.1 0-.12.2-.32.4-.62.2-.2.4-.3.7-.4.3-.1.6-.1 1-.1z"/></svg>