<svg width="16" height="16" viewBox="0 0 16 16" fill="none" xmlns="http://www.w3.org/2000/svg">
<path d="M1.5 4C1.5 3.72421 1.72421 3.5 2 3.5H7.25V13H2C1.72421 13 1.5 12.7758 1.5 12.5V4ZM8.75 13V3.5H14C14.2758 3.5 14.5 3.72421 14.5 4V12.5C14.5 12.7758 14.2758 13 14 13H8.75ZM2 2C0.895786 2 0 2.89579 0 4V12.5C0 13.6042 0.895786 14.5 2 14.5H14C15.1042 14.5 16 13.6042 16 12.5V4C16 2.89579 15.1042 2 14 2H2ZM4.75 5H3V6.5H4V11.5H5.5V5.75C5.5 5.33579 5.16421 5 4.75 5ZM10 6.5H11.5V7.28647L10.4146 7.82918C10.1605 7.95622 10 8.21592 10 8.5V10.75C10 11.1642 10.3358 11.5 10.75 11.5H13V10H11.5V8.96353L12.5854 8.42082C12.8395 8.29378 13 8.03408 13 7.75V5.75C13 5.33579 12.6642 5 12.25 5H10V6.5Z" fill="black"/>
</svg>
