<svg width="16" height="16" viewBox="0 0 16 16" fill="none" xmlns="http://www.w3.org/2000/svg">
<path d="M12.5895 4.83613L11.23 6.19601C10.933 6.49201 11.143 7.00001 11.563 7.00001H15.138C15.398 7.00001 15.609 6.78901 15.609 6.52901V2.95401C15.609 2.53401 15.101 2.32401 14.804 2.62101L13.672 3.75328C12.3204 1.78973 10.0599 0.5 7.5 0.5C3.364 0.5 0 3.864 0 8C0 12.136 3.364 15.5 7.5 15.5C11.296 15.5 14.434 12.663 14.925 9H13.41C12.932 11.833 10.468 14 7.5 14C4.191 14 1.5 11.309 1.5 8C1.5 4.691 4.191 2 7.5 2C9.64738 2 11.5311 3.13503 12.5895 4.83613Z" fill="black"/>
</svg>
