<svg width="16" height="16" viewBox="0 0 16 16" fill="none" xmlns="http://www.w3.org/2000/svg">
<path d="M3.5 2C3.5 1.72421 3.72421 1.5 4 1.5H12C12.2758 1.5 12.5 1.72421 12.5 2V14C12.5 14.2758 12.2758 14.5 12 14.5H4C3.72421 14.5 3.5 14.2758 3.5 14V2ZM4 0C2.89579 0 2 0.895786 2 2V14C2 15.1042 2.89579 16 4 16H12C13.1042 16 14 15.1042 14 14V2C14 0.895786 13.1042 0 12 0H4ZM5.89301 6H7.25V10H5.89301C5.54301 10 5.36801 10.423 5.61501 10.67L7.72101 12.776C7.87401 12.929 8.12301 12.929 8.27601 12.776L10.383 10.669C10.63 10.422 10.455 9.99902 10.105 9.99902H8.75V6H10.106C10.456 6 10.632 5.577 10.383 5.331L8.27601 3.224C8.12301 3.071 7.87401 3.071 7.72101 3.224L5.61501 5.33C5.36801 5.577 5.54301 6 5.89301 6Z" fill="black"/>
</svg>
