<svg xmlns="http://www.w3.org/2000/svg" width="16" height="16"
fill="rgba(255,255,255,1)"><path d="M5.5 4c1 0 1.5.5 1.5 1.5v5c0 1-.5 1.5-1.5 1.5h-3c-1 0-1.5-.5-1.5-1.5v-5C1 4.5 1.5 4 2.5 4zM7 0v.5C7 1.5 6.5 2 5.5 2h-3C1.5 2 1 1.5 1 .5V0h6zM7 16v-.5c0-1-.5-1.5-1.5-1.5h-3c-1 0-1.5.5-1.5 1.5v.5h6zM13.5 4c1 0 1.5.5 1.5 1.5v5c0 1-.5 1.5-1.5 1.5h-3c-1 0-1.5-.5-1.5-1.5v-5c0-1 .5-1.5 1.5-1.5zM15 0v.5c0 1-.5 1.5-1.5 1.5h-3C9.5 2 9 1.5 9 .5V0h6zM15 16v-.507c0-1-.5-1.5-1.5-1.5h-3C9.5 14 9 14.5 9 15.5v.5h6z"/></svg>