<!-- This Source Code Form is subject to the terms of the Mozilla Public
   - License, v. 2.0. If a copy of the MPL was not distributed with this
   - file, You can obtain one at http://mozilla.org/MPL/2.0/. -->
<svg xmlns="http://www.w3.org/2000/svg" width="16" height="16" viewBox="0 0 16 16"
fill="rgba(255,255,255,1)"><path d="M14 5h-1V1a1 1 0 0 0-1-1H4a1 1 0 0 0-1 1v4H2a2 2 0 0 0-2 2v5h3v3a1 1 0 0 0 1 1h8a1 1 0 0 0 1-1v-3h3V7a2 2 0 0 0-2-2zM2.5 8a.5.5 0 1 1 .5-.5.5.5 0 0 1-.5.5zm9.5 7H4v-5h8zm0-10H4V1h8zm-6.5 7h4a.5.5 0 0 0 0-1h-4a.5.5 0 1 0 0 1zm0 2h5a.5.5 0 0 0 0-1h-5a.5.5 0 1 0 0 1z"></path></svg>