<!-- This Source Code Form is subject to the terms of the Mozilla Public
   - License, v. 2.0. If a copy of the MPL was not distributed with this
   - file, You can obtain one at http://mozilla.org/MPL/2.0/. -->
<svg xmlns="http://www.w3.org/2000/svg" viewBox="0 0 12 7.5" width="12" height="12">
  <path d="M1.5,4.5c.75,0,1.31.75,1.68,1.49A4.47,4.47,0,0,1,7.5,2.25C10.5,2.25,12,5,12,7.5h-.75V9.38a.37.37,0,0,1-.37.38H9.38A.38.38,0,0,1,9,9.38V8.25H5.25V9.38a.37.37,0,0,1-.37.38H3.38A.37.37,0,0,1,3,9.38V7.5H1.5a1.5,1.5,0,0,1,0-3Z" transform="translate(0 -2.25)"/>
</svg>
