<?xml version="1.0" encoding="UTF-8"?>
<svg version="1.1" xmlns="http://www.w3.org/2000/svg" width="512" height="512">
<path d="M0 0 C1.22733575 -0.00445784 2.4546715 -0.00891569 3.71919924 -0.01350862 C5.08329937 -0.01341932 6.44739949 -0.01322948 7.8114996 -0.01294994 C9.25904293 -0.01624959 10.70658534 -0.01997537 12.15412658 -0.02409142 C16.13720782 -0.03410824 20.12027398 -0.03782771 24.10336602 -0.04048073 C28.39734959 -0.04438476 32.69132124 -0.05396307 36.9852972 -0.0626936 C47.35826105 -0.08245577 57.73122588 -0.09252415 68.10420385 -0.10142139 C72.98962731 -0.1058049 77.87504969 -0.11117157 82.7604723 -0.11641026 C99.00201759 -0.13342269 115.24356221 -0.14791654 131.48511505 -0.155159 C135.69986185 -0.15706888 139.91460865 -0.15898921 144.12935543 -0.16094494 C145.7006789 -0.16167055 145.7006789 -0.16167055 147.30374628 -0.16241082 C164.27072648 -0.17070989 181.23763615 -0.19604467 198.20458556 -0.22852562 C215.62616791 -0.26160483 233.04771443 -0.27960856 250.46932834 -0.28280324 C260.25009213 -0.28496759 270.03075308 -0.29370528 279.81148624 -0.31926441 C288.14186667 -0.34098321 296.47211928 -0.34901603 304.80252481 -0.33929763 C309.05099932 -0.33475628 313.29921017 -0.33662942 317.54764843 -0.35605907 C321.44212123 -0.37371566 325.33613852 -0.3726731 329.23061632 -0.35716178 C330.63445725 -0.35478947 332.03832992 -0.35908971 333.44212241 -0.37099043 C347.0959629 -0.47950917 359.16165273 2.99415952 369.45528316 12.32172108 C379.17564839 22.46471087 384.38000252 34.42559016 384.29569626 48.43477058 C384.29890274 49.23494981 384.30210921 50.03512903 384.30541286 50.85955611 C384.31369611 53.53348572 384.30779449 56.20719037 384.30191708 58.88112354 C384.30493849 60.82042277 384.30882792 62.75972082 384.31350964 64.69901675 C384.32379901 70.02250877 384.32160545 75.34593352 384.31732905 80.66943109 C384.31486366 86.41242188 384.32387346 92.15539639 384.33136654 97.89838123 C384.34411898 109.14529489 384.3459067 120.39218468 384.34356628 131.63910434 C384.34178422 140.77600049 384.34353032 149.91288938 384.34779072 159.04978466 C384.34838591 160.34947899 384.3489811 161.64917333 384.34959432 162.98825234 C384.35080604 165.62837587 384.35202018 168.26849941 384.3532367 170.90862294 C384.36102376 188.63436768 384.36494299 206.36010931 384.36091995 224.08585548 C384.36076358 224.77881316 384.3606072 225.47177084 384.36044609 226.18572724 C384.3596403 229.69791836 384.35879453 233.21010946 384.35793278 236.72230057 C384.35767615 237.76860516 384.35767615 237.76860516 384.35741434 238.83604721 C384.35706768 240.24663205 384.35671915 241.65721689 384.35636875 243.06780174 C384.35100709 265.03486297 384.35895551 287.00188411 384.37740231 308.96893787 C384.39810076 333.64625153 384.40881841 358.32353939 384.40482682 383.0008623 C384.40291075 396.06881096 384.40544211 409.13672307 384.41954136 422.20466518 C384.43141703 433.3242811 384.43290282 444.44383793 384.42075119 455.56345461 C384.41483671 461.24074232 384.41383372 466.91792176 384.42575359 472.59520245 C384.43652499 477.78554628 384.43361444 482.97569027 384.41949191 488.16602441 C384.41682076 490.05007911 384.4192863 491.93414903 384.42722777 493.81818888 C384.43722983 496.36666448 384.42900209 498.91443124 384.41595078 501.46287727 C384.42326012 502.20514746 384.43056947 502.94741766 384.43810031 503.71218088 C384.40701515 506.61300804 384.37628424 508.63956713 382.72238988 511.08120936 C379.72793679 512.95680532 377.47220291 512.6125446 374.04122066 512.13422108 C371.53936378 510.43165101 369.58175425 508.87480809 367.41622066 506.82172108 C366.18893159 505.71431211 364.96105348 504.60755562 363.73262691 503.50140858 C362.8105444 502.65594471 362.8105444 502.65594471 361.86983395 501.79340076 C359.0913968 499.27240492 356.22654192 496.85890848 353.35372066 494.44672108 C352.8159399 493.99184315 352.27815914 493.53696522 351.72408199 493.06830311 C348.3791757 490.24195144 345.00190903 487.45899115 341.60372066 484.69672108 C336.73993041 480.7391392 331.98240835 476.66879661 327.23287106 472.57587147 C323.70823148 469.54476818 320.15082184 466.56436791 316.54122066 463.63422108 C311.69525277 459.70043538 306.96023539 455.64974348 302.23262691 451.57562733 C298.70804163 448.54463823 295.15073234 445.56429526 291.54122066 442.63422108 C286.69525277 438.70043538 281.96023539 434.64974348 277.23262691 430.57562733 C273.70804163 427.54463823 270.15073234 424.56429526 266.54122066 421.63422108 C261.69525277 417.70043538 256.96023539 413.64974348 252.23262691 409.57562733 C248.70804163 406.54463823 245.15073234 403.56429526 241.54122066 400.63422108 C236.69525277 396.70043538 231.96023539 392.64974348 227.23262691 388.57562733 C223.70804163 385.54463823 220.15073234 382.56429526 216.54122066 379.63422108 C211.69525277 375.70043538 206.96023539 371.64974348 202.23262691 367.57562733 C198.70804163 364.54463823 195.15073234 361.56429526 191.54122066 358.63422108 C187.31328437 355.20213162 183.16617626 351.68844913 179.04122066 348.13422108 C170.94080842 341.1631243 162.85191999 334.20381394 154.04122066 328.13422108 C153.41215816 328.77488514 152.78309566 329.4155492 152.13497066 330.07562733 C151.27903316 330.94058826 150.42309566 331.8055492 149.54122066 332.69672108 C148.70590816 333.54363514 147.87059566 334.3905492 147.00997066 335.26312733 C144.9124473 337.33814247 142.7337617 339.27121785 140.48848629 341.18475819 C135.39780902 345.62453904 130.66853351 350.40039742 125.91622066 355.19672108 C124.96062697 356.15673482 124.00472883 357.11644561 123.04854488 358.07587147 C120.04324517 361.09248477 117.04192455 364.11303704 114.04122066 367.13422108 C110.55829056 370.64092259 107.07365565 374.14589574 103.58473873 377.64664173 C102.20468933 379.03307448 100.82774322 380.42259406 99.45088863 381.81219959 C95.12611607 386.15369059 90.74016199 390.31635052 86.0924902 394.30780506 C81.85350682 398.08212483 77.90958847 402.166371 73.91622066 406.19672108 C72.96062697 407.15673482 72.00472883 408.11644561 71.04854488 409.07587147 C68.04324517 412.09248477 65.04192455 415.11303704 62.04122066 418.13422108 C58.55829056 421.64092259 55.07365565 425.14589574 51.58473873 428.64664173 C50.20468933 430.03307448 48.82774322 431.42259406 47.45088863 432.81219959 C43.12611607 437.15369059 38.74016199 441.31635052 34.0924902 445.30780506 C29.85350682 449.08212483 25.90958847 453.166371 21.91622066 457.19672108 C20.96062697 458.15673482 20.00472883 459.11644561 19.04854488 460.07587147 C16.04324517 463.09248477 13.04192455 466.11303704 10.04122066 469.13422108 C6.55829056 472.64092259 3.07365565 476.14589574 -0.41526127 479.64664173 C-1.79531067 481.03307448 -3.17225678 482.42259406 -4.54911137 483.81219959 C-8.96839996 488.24857199 -13.43112849 492.54606382 -18.21340275 496.59090137 C-20.10475887 498.26330101 -21.82969568 500.03945351 -23.55643559 501.88031483 C-24.4178516 502.79393787 -24.4178516 502.79393787 -25.29666996 503.72601795 C-26.46192081 504.9730871 -27.61535598 506.23128648 -28.75760746 507.49945545 C-31.81370713 510.69993779 -33.20850433 512.01452131 -37.70487309 512.73187733 C-40.95877934 512.13422108 -40.95877934 512.13422108 -42.63837868 511.07545364 C-44.67895184 508.07543463 -44.37096072 504.98053354 -44.33909607 501.47684383 C-44.34375599 500.6854298 -44.34841591 499.89401576 -44.35321704 499.07861948 C-44.36524831 496.40420865 -44.35574046 493.73029828 -44.34645939 491.05588245 C-44.35062881 489.12802376 -44.35610416 487.20016751 -44.3627792 485.27231586 C-44.37730512 479.95680532 -44.3729668 474.64144888 -44.36561239 469.32592964 C-44.36090032 463.59969383 -44.37337346 457.87349232 -44.3836298 452.14726734 C-44.40086469 440.91969825 -44.40164772 429.69218501 -44.3964169 418.46460612 C-44.39238088 409.33720794 -44.393812 400.20982631 -44.39916515 391.08242893 C-44.39991358 389.78494438 -44.400662 388.48745982 -44.4014331 387.15065756 C-44.40296454 384.51498366 -44.40450289 381.87930977 -44.40604807 379.24363588 C-44.41588454 361.53287694 -44.42003284 343.82212569 -44.41242218 326.11136532 C-44.41212501 325.41832975 -44.41182783 324.72529417 -44.41152166 324.01125752 C-44.40907265 318.38311507 -44.40646109 312.7549727 -44.40383752 307.12683033 C-44.39374471 285.19404345 -44.40206961 263.2613332 -44.42533207 241.32855701 C-44.4514224 216.68963236 -44.46419752 192.05075561 -44.45714432 167.41181648 C-44.45365108 154.36582141 -44.45589051 141.31988924 -44.47339535 128.27390385 C-44.48811995 117.16175527 -44.48874985 106.04971379 -44.47132444 94.93756731 C-44.46281223 89.26917302 -44.46067022 83.60097003 -44.47597599 77.93258572 C-44.48982732 72.73837964 -44.48505381 67.54452866 -44.46573675 62.35034309 C-44.46197767 60.47605609 -44.46489602 58.60174062 -44.47534841 56.727479 C-44.56069807 40.24441828 -42.1559397 26.38387338 -30.74002934 13.66156483 C-22.35290251 5.50590091 -11.79362853 0.01986581 0 0 Z " fill="#D0D1D1" transform="translate(85.95877933502197,-0.13422107696533203)"/>
<path d="M0 0 C3.82899904 1.4830025 3.82899904 1.4830025 5.2657156 3.8775301 C5.08827117 9.90102056 3.0849606 12.92485513 -1.08441257 16.98956013 C-1.64794182 17.56244931 -2.21147106 18.1353385 -2.79207695 18.72558796 C-4.67952804 20.63692542 -6.58764665 22.52615046 -8.49649143 24.41610432 C-9.85597032 25.78371528 -11.21416988 27.15259898 -12.5711832 28.52265644 C-16.2579166 32.23674126 -19.96337645 35.93159773 -23.67330122 39.62249994 C-27.55343721 43.4874453 -31.41891244 47.36700847 -35.28674412 51.24425983 C-41.78453995 57.75297153 -48.29488444 64.24893013 -54.8124094 70.73788166 C-62.34736404 78.24018301 -69.8604595 85.76385544 -77.36256421 93.2989949 C-83.80426306 99.76792141 -90.25758105 106.22508184 -96.7207545 112.67255318 C-100.58092595 116.52337042 -104.43692888 120.37812676 -108.28250599 124.2435236 C-111.8985678 127.8769173 -115.52899196 131.49531933 -119.17102337 135.10267544 C-120.50528049 136.42899881 -121.83445765 137.7604551 -123.15812206 139.09735012 C-124.96597853 140.92160335 -126.79130663 142.72636847 -128.62225437 144.52740192 C-129.40190908 145.32713312 -129.40190908 145.32713312 -130.19731438 146.14302051 C-133.84847308 149.67935238 -136.64970471 150.85932923 -141.7342844 150.8775301 C-143.67601109 149.93973923 -143.67601109 149.93973923 -145.20230198 148.41865253 C-146.08976864 147.56285603 -146.08976864 147.56285603 -146.99516392 146.6897707 C-147.61676899 146.05040073 -148.23837406 145.41103077 -148.87881565 144.75228596 C-149.5544405 144.08907337 -150.23006535 143.42586079 -150.92616367 142.74255085 C-153.15345342 140.54536881 -155.35031663 138.32033677 -157.5467844 136.09237385 C-159.08493088 134.55707646 -160.62433707 133.02304018 -162.16494846 131.49021626 C-165.38875393 128.27369343 -168.5979001 125.04340041 -171.79727268 121.80257893 C-175.90252766 117.64612658 -180.04044341 113.52410018 -184.18965244 109.41157913 C-187.37322213 106.24940124 -190.53971039 103.07055732 -193.70117283 99.88629055 C-195.22083598 98.3594354 -196.74559689 96.83763679 -198.27545261 95.32099438 C-200.40945117 93.20004275 -202.51963632 91.0579523 -204.6249094 88.90853596 C-205.26270832 88.28333561 -205.90050724 87.65813526 -206.5576334 87.01398945 C-210.73262193 82.68358911 -210.73262193 82.68358911 -210.74112034 78.56309223 C-209.7342844 75.8775301 -209.7342844 75.8775301 -207.7342844 73.8775301 C-205.1092844 73.3150301 -205.1092844 73.3150301 -201.7342844 73.8775301 C-194.10722191 79.22149351 -187.70185372 86.78198694 -181.1405344 93.37362385 C-179.94149486 94.57453213 -178.74223163 95.7752171 -177.54275608 96.97568989 C-174.41048233 100.11175295 -171.2812253 103.25080899 -168.15261936 106.39053059 C-164.94991171 109.60353011 -161.74431532 112.81364481 -158.5389719 116.02401447 C-152.26793651 122.30572381 -146.00008917 128.59060367 -139.7342844 134.8775301 C-135.79208462 133.28544951 -133.16076203 130.56184494 -130.23771763 127.5810976 C-129.42321413 126.76280728 -129.42321413 126.76280728 -128.59225601 125.92798585 C-126.77357128 124.09854427 -124.9621506 122.26207488 -123.15054417 120.4256258 C-121.84821342 119.11290886 -120.54539573 117.80067487 -119.24212742 116.48888874 C-116.43647711 113.66335662 -113.63376851 110.83494938 -110.83313274 108.00444698 C-106.40694667 103.5321718 -101.97103663 99.06962973 -97.53309727 94.60902119 C-84.91471229 81.92373155 -72.30464633 69.23025544 -59.71548557 56.51595783 C-52.76254703 49.49407087 -45.799023 42.48286689 -38.82342857 35.48348397 C-34.40548322 31.04930317 -30.00103036 26.60226533 -25.60586464 22.14551032 C-22.87279356 19.38051238 -20.12730808 16.62811368 -17.37804127 13.87922764 C-16.10252946 12.59885675 -14.83219933 11.31330047 -13.56740856 10.02233791 C-11.84436999 8.26513685 -10.1039622 6.52722564 -8.35783482 4.79301167 C-7.85763138 4.27396694 -7.35742794 3.75492221 -6.84206682 3.22014886 C-4.48022116 0.91204846 -3.38086602 -0.1514306 0 0 Z " fill="#B9B9B9" transform="translate(353.73428440093994,101.12246990203857)"/>
<path d="M0 0 C0.93070627 -0.00782324 1.86141254 -0.01564648 2.82032204 -0.02370679 C4.35663308 -0.01366855 4.35663308 -0.01366855 5.92398071 -0.00342751 C7.01065222 -0.00810748 8.09732372 -0.01278745 9.21692467 -0.01760924 C12.87672319 -0.02962385 16.53615173 -0.02007658 20.19595337 -0.01066017 C22.81218689 -0.01472299 25.42841869 -0.02006323 28.04464722 -0.02659035 C34.42410086 -0.03994923 40.80344879 -0.0370404 47.18290663 -0.02835242 C52.36636188 -0.02158474 57.54978745 -0.02065518 62.73324585 -0.02392387 C63.4702193 -0.02438357 64.20719275 -0.02484327 64.96649873 -0.0253169 C66.46351895 -0.02627605 67.96053915 -0.02724869 69.45755935 -0.02823468 C83.50409281 -0.03679488 97.5505676 -0.02694457 111.59709144 -0.01083358 C123.65676752 0.00257019 135.71635698 0.00024227 147.77603149 -0.01358986 C161.77136729 -0.02963456 175.76665161 -0.03597085 189.76199532 -0.02675307 C191.25359217 -0.02579739 192.74518902 -0.02485428 194.23678589 -0.02392387 C194.97073212 -0.02346105 195.70467835 -0.02299822 196.46086538 -0.02252137 C201.63972479 -0.01992814 206.81855164 -0.02430962 211.99740601 -0.03136253 C218.96426134 -0.04064166 225.9309499 -0.03406104 232.897789 -0.01667976 C235.46049476 -0.01270007 238.02321425 -0.01387411 240.58591461 -0.02046776 C244.07281573 -0.02861471 247.55918423 -0.01844441 251.04605103 -0.00342751 C252.07025839 -0.01011967 253.09446575 -0.01681184 254.1497097 -0.02370679 C255.54576911 -0.01197193 255.54576911 -0.01197193 256.97003174 0 C257.77531122 0.00048706 258.58059071 0.00097411 259.4102726 0.00147593 C262.02443728 0.47529362 262.91009382 1.26633047 264.48501587 3.37752342 C265.12736966 8.51635376 265.12736966 8.51635376 263.24376488 11.04160279 C261.00183368 12.74454171 259.76875855 12.75244474 256.97003174 12.75225353 C255.57397233 12.76306335 255.57397233 12.76306335 254.1497097 12.77409154 C252.61339866 12.76303011 252.61339866 12.76303011 251.04605103 12.75174522 C249.41604377 12.75770683 249.41604377 12.75770683 247.75310707 12.76378888 C244.09329978 12.77345243 240.43387513 12.761569 236.77407837 12.74983788 C234.15784561 12.75226449 231.54161378 12.75598255 228.92538452 12.7609005 C222.54592429 12.77039982 216.16657698 12.7637788 209.78712511 12.75163756 C202.36223495 12.73803187 194.93737184 12.73965415 187.51247239 12.74177089 C174.26696887 12.74496243 161.02151908 12.73328362 147.77603149 12.71370506 C134.91533776 12.6947002 122.05470702 12.68761731 109.19400024 12.69319725 C95.19866896 12.69925149 81.2033654 12.69908449 67.20803642 12.68771142 C65.71643957 12.68650409 64.22484271 12.68529811 62.73324585 12.68409348 C61.99929962 12.68348994 61.26535339 12.6828864 60.50916636 12.68226457 C55.3303163 12.67838096 50.15147655 12.67878076 44.97262573 12.68067932 C38.00579782 12.68301982 31.03905256 12.67449148 24.07224274 12.65861893 C21.50953762 12.65436308 18.94682428 12.6535342 16.38411713 12.65630913 C12.89731474 12.65951285 9.41075785 12.65049478 5.92398071 12.63821983 C4.89977335 12.64199916 3.87556599 12.64577848 2.82032204 12.64967233 C1.88961576 12.64384014 0.95890949 12.63800794 0 12.63199902 C-0.80527948 12.63113224 -1.61055897 12.63026546 -2.44024086 12.62937242 C-4.51498413 12.37752342 -4.51498413 12.37752342 -7.51498413 10.37752342 C-8.17940466 4.28700188 -8.17940466 4.28700188 -6.27373314 1.67846239 C-4.03204694 0.02029689 -2.77391675 0.00167775 0 0 Z " fill="#B9B9B9" transform="translate(128.51498413085938,54.62247657775879)"/>
</svg>
