<?xml version="1.0" encoding="iso-8859-1"?>
<!-- copied from https://www.svgrepo.com/svg/255881/text -->
<svg version="1.1" id="Layer_1" xmlns="http://www.w3.org/2000/svg" xmlns:xlink="http://www.w3.org/1999/xlink" x="0px" y="0px"
	 viewBox="0 0 16 16" style="enable-background:new 0 0 16 16;" xml:space="preserve">
<g>
	<g transform="scale(0.03125)">
		<path d="M405.787,43.574H8.17c-4.513,0-8.17,3.658-8.17,8.17v119.83c0,4.512,3.657,8.17,8.17,8.17h32.681
			c4.513,0,8.17-3.658,8.17-8.17v-24.511h95.319v119.83c0,4.512,3.657,8.17,8.17,8.17c4.513,0,8.17-3.658,8.17-8.17v-128
			c0-4.512-3.657-8.17-8.17-8.17H40.851c-4.513,0-8.17,3.658-8.17,8.17v24.511H16.34V59.915h381.277v103.489h-16.34v-24.511
			c0-4.512-3.657-8.17-8.17-8.17h-111.66c-4.513,0-8.17,3.658-8.17,8.17v288.681c0,4.512,3.657,8.17,8.17,8.17h57.191v16.34H95.319
			v-16.34h57.191c4.513,0,8.17-3.658,8.17-8.17v-128c0-4.512-3.657-8.17-8.17-8.17c-4.513,0-8.17,3.658-8.17,8.17v119.83H87.149
			c-4.513,0-8.17,3.658-8.17,8.17v32.681c0,4.512,3.657,8.17,8.17,8.17h239.66c4.513,0,8.17-3.658,8.17-8.17v-32.681
			c0-4.512-3.657-8.17-8.17-8.17h-57.192v-272.34h95.319v24.511c0,4.512,3.657,8.17,8.17,8.17h32.681c4.513,0,8.17-3.658,8.17-8.17
			V51.745C413.957,47.233,410.3,43.574,405.787,43.574z"/>
	</g>
</g>
<g>
	<g transform="scale(0.03125)">
		<path d="M503.83,452.085h-24.511V59.915h24.511c4.513,0,8.17-3.658,8.17-8.17s-3.657-8.17-8.17-8.17h-65.362
			c-4.513,0-8.17,3.658-8.17,8.17s3.657,8.17,8.17,8.17h24.511v392.17h-24.511c-4.513,0-8.17,3.658-8.17,8.17s3.657,8.17,8.17,8.17
			h65.362c4.513,0,8.17-3.658,8.17-8.17S508.343,452.085,503.83,452.085z"/>
	</g>
</g>
</svg>
