<svg xmlns="http://www.w3.org/2000/svg" height="16" width="16"><path d="m14 9h-6c-1.3 0-1.3 2 0 2h6c1.3 0 1.3-2 0-2zm-5.2-8h-3.8c-1.3 0-1.3 2 0 2h1.7zm-6.8 0c-1 0-1.3 1-0.7 1.7 0.7 0.6 1.7 0.3 1.7-0.7 0-0.5-0.4-1-1-1zm3 8c-1 0-1.3 1-0.7 1.7 0.6 0.6 1.7 0.2 1.7-0.7 0-0.5-0.4-1-1-1zm0.3-4h-0.3c-1.4 0-1.4 2 0 2h2.3zm-3.3 0c-0.9 0-1.4 1-0.7 1.7 0.7 0.6 1.7 0.2 1.7-0.7 0-0.6-0.5-1-1-1zm12 8h-9c-1.3 0-1.3 2 0 2h9c1.3 0 1.3-2 0-2zm-12 0c-1 0-1.3 1-0.7 1.7 0.7 0.6 1.7 0.2 1.7-0.712 0-0.5-0.4-1-1-1z"/><path d="m7.37 4.838 3.93-3.911v2.138h3.629v3.546h-3.629v2.138l-3.93-3.911"/></svg>