<?xml version="1.0" encoding="utf-8"?><!-- Uploaded to: SVG Repo, www.svgrepo.com, Generator: SVG Repo Mixer Tools -->
<svg width="800px" height="800px" viewBox="0 0 24 24" fill="none" xmlns="http://www.w3.org/2000/svg">
<path d="M5.50506 11.4096L6.03539 11.9399L5.50506 11.4096ZM3 14.9522H2.25H3ZM12.5904 18.4949L12.0601 17.9646L12.5904 18.4949ZM9.04776 21V21.75V21ZM11.4096 5.50506L10.8792 4.97473L11.4096 5.50506ZM13.241 17.8444C13.5339 18.1373 14.0088 18.1373 14.3017 17.8444C14.5946 17.5515 14.5946 17.0766 14.3017 16.7837L13.241 17.8444ZM7.21629 9.69832C6.9234 9.40543 6.44852 9.40543 6.15563 9.69832C5.86274 9.99122 5.86274 10.4661 6.15563 10.759L7.21629 9.69832ZM16.073 16.073C16.3659 15.7801 16.3659 15.3053 16.073 15.0124C15.7801 14.7195 15.3053 14.7195 15.0124 15.0124L16.073 16.073ZM18.4676 11.5559C18.1759 11.8499 18.1777 12.3248 18.4718 12.6165C18.7658 12.9083 19.2407 12.9064 19.5324 12.6124L18.4676 11.5559ZM6.03539 11.9399L11.9399 6.03539L10.8792 4.97473L4.97473 10.8792L6.03539 11.9399ZM6.03539 17.9646C5.18538 17.1146 4.60235 16.5293 4.22253 16.0315C3.85592 15.551 3.75 15.2411 3.75 14.9522H2.25C2.25 15.701 2.56159 16.3274 3.03 16.9414C3.48521 17.538 4.1547 18.2052 4.97473 19.0253L6.03539 17.9646ZM4.97473 10.8792C4.1547 11.6993 3.48521 12.3665 3.03 12.9631C2.56159 13.577 2.25 14.2035 2.25 14.9522H3.75C3.75 14.6633 3.85592 14.3535 4.22253 13.873C4.60235 13.3752 5.18538 12.7899 6.03539 11.9399L4.97473 10.8792ZM12.0601 17.9646C11.2101 18.8146 10.6248 19.3977 10.127 19.7775C9.64651 20.1441 9.33665 20.25 9.04776 20.25V21.75C9.79649 21.75 10.423 21.4384 11.0369 20.97C11.6335 20.5148 12.3008 19.8453 13.1208 19.0253L12.0601 17.9646ZM4.97473 19.0253C5.79476 19.8453 6.46201 20.5148 7.05863 20.97C7.67256 21.4384 8.29902 21.75 9.04776 21.75V20.25C8.75886 20.25 8.449 20.1441 7.9685 19.7775C7.47069 19.3977 6.88541 18.8146 6.03539 17.9646L4.97473 19.0253ZM17.9646 6.03539C18.8146 6.88541 19.3977 7.47069 19.7775 7.9685C20.1441 8.449 20.25 8.75886 20.25 9.04776H21.75C21.75 8.29902 21.4384 7.67256 20.97 7.05863C20.5148 6.46201 19.8453 5.79476 19.0253 4.97473L17.9646 6.03539ZM19.0253 4.97473C18.2052 4.1547 17.538 3.48521 16.9414 3.03C16.3274 2.56159 15.701 2.25 14.9522 2.25V3.75C15.2411 3.75 15.551 3.85592 16.0315 4.22253C16.5293 4.60235 17.1146 5.18538 17.9646 6.03539L19.0253 4.97473ZM11.9399 6.03539C12.7899 5.18538 13.3752 4.60235 13.873 4.22253C14.3535 3.85592 14.6633 3.75 14.9522 3.75V2.25C14.2035 2.25 13.577 2.56159 12.9631 3.03C12.3665 3.48521 11.6993 4.1547 10.8792 4.97473L11.9399 6.03539ZM14.3017 16.7837L7.21629 9.69832L6.15563 10.759L13.241 17.8444L14.3017 16.7837ZM15.0124 15.0124L12.0601 17.9646L13.1208 19.0253L16.073 16.073L15.0124 15.0124ZM19.5324 12.6124C20.1932 11.9464 20.7384 11.3759 21.114 10.8404C21.5023 10.2869 21.75 9.71511 21.75 9.04776H20.25C20.25 9.30755 20.1644 9.58207 19.886 9.979C19.5949 10.394 19.1401 10.8781 18.4676 11.5559L19.5324 12.6124Z" fill="#1C274C"/>
<path d="M9 21H21" stroke="#1C274C" stroke-width="1.5" stroke-linecap="round"/>
</svg>