<?xml version="1.0" standalone="no"?><!DOCTYPE svg PUBLIC "-//W3C//DTD SVG 1.1//EN" "http://www.w3.org/Graphics/SVG/1.1/DTD/svg11.dtd"><svg t="1627374357791" class="icon" viewBox="0 0 1024 1024" version="1.1" xmlns="http://www.w3.org/2000/svg" p-id="4158" xmlns:xlink="http://www.w3.org/1999/xlink" width="200" height="200"><defs><style type="text/css">@font-face { font-family: feedback-iconfont; src: url("//at.alicdn.com/t/font_1031158_1uhr8ri0pk5.eot?#iefix") format("embedded-opentype"), url("//at.alicdn.com/t/font_1031158_1uhr8ri0pk5.woff2") format("woff2"), url("//at.alicdn.com/t/font_1031158_1uhr8ri0pk5.woff") format("woff"), url("//at.alicdn.com/t/font_1031158_1uhr8ri0pk5.ttf") format("truetype"), url("//at.alicdn.com/t/font_1031158_1uhr8ri0pk5.svg#iconfont") format("svg"); }
</style></defs><path d="M899.195018 129.527029H122.811582c-30.627555 0-55.456033 24.961508-55.456033 55.752791v557.52587c0 30.791284 24.828478 55.752792 55.456033 55.752791h277.280164l91.280959 91.769077c5.202489 5.243421 12.265348 8.18952 19.631106 8.189519s14.429641-2.947122 19.631107-8.189519l91.280959-91.769077h277.280164c30.627555 0 55.456033-24.961508 55.456033-55.752791V185.278797c-0.001023-30.791284-24.829502-55.751768-55.457056-55.751768zM491.285724 445.00926H156.085406c-16.335037 0-29.576619-13.241582-29.576619-29.576619s13.241582-29.576619 29.576619-29.576619h335.200318c16.335037 0 29.576619 13.241582 29.576619 29.576619s-13.242606 29.576619-29.576619 29.576619zM688.462502 326.703807H156.085406c-16.335037 0-29.576619-13.241582-29.576619-29.576619s13.241582-29.576619 29.576619-29.576619h532.377096c16.335037 0 29.576619 13.241582 29.576619 29.576619s-13.242606 29.576619-29.576619 29.576619z" p-id="4159"></path></svg>