<?xml version="1.0" encoding="UTF-8"?>
<svg version="1.1" xmlns="http://www.w3.org/2000/svg" width="512" height="512">
<path d="M0 0 C1.53766069 -0.00390005 3.07531776 -0.00954611 4.61296642 -0.0167709 C8.80806386 -0.03144221 13.00278274 -0.02139432 17.19786763 -0.00703418 C21.7336959 0.00411921 26.26947296 -0.0078813 30.80529785 -0.01687622 C39.67845709 -0.03078037 48.55147362 -0.02327373 57.42462601 -0.00820064 C67.76398073 0.0086922 78.10330023 0.00544513 88.44266449 0.00170528 C106.8928659 -0.00416797 125.34299897 0.00997808 143.79318237 0.03465271 C161.68578654 0.05857886 179.57829945 0.06565356 197.47091675 0.05516052 C216.97015146 0.04374573 236.46934401 0.04182766 255.96857822 0.05625862 C258.0485394 0.05778441 260.12850058 0.05930477 262.20846176 0.06081963 C263.23176381 0.06157744 264.25506585 0.06233525 265.30937705 0.06311603 C272.51235033 0.06785397 279.71530475 0.06601095 286.91827774 0.06175423 C295.69754893 0.05682262 304.47673392 0.06283419 313.25598539 0.08264852 C317.73318815 0.09250519 322.21025978 0.09764315 326.68746948 0.08975601 C330.78938434 0.08267792 334.89103511 0.08955335 338.99291526 0.10735964 C340.47320419 0.11139031 341.95351737 0.11042755 343.43379714 0.10384078 C359.00156224 0.04052139 370.89922218 3.52994828 382.43136597 14.27854919 C392.95794286 25.57972326 395.1067858 39.44333587 394.98269653 54.29460144 C394.98444403 55.86413547 394.98795221 57.43366834 394.9930532 59.00319505 C395.00194202 63.28602978 394.98607417 67.56845979 394.96594095 71.85124302 C394.94859183 76.48093143 394.95451791 81.11059887 394.95755005 85.74031067 C394.95964271 93.75160332 394.94714241 101.7627652 394.92459869 109.77402496 C394.89202602 121.35679633 394.88166629 132.93950476 394.87664673 144.52231696 C394.86790233 163.31674788 394.84130998 182.11110918 394.80343628 200.90550232 C394.76669404 219.15745191 394.73839311 237.40938256 394.72140503 255.66136169 C394.72035414 256.78729334 394.71930324 257.91322499 394.7182205 259.07327577 C394.71300018 264.72200698 394.70794539 270.37073831 394.70297289 276.01946974 C394.6615375 322.84676565 394.59000792 369.67397647 394.50167847 416.50120544 C415.62167847 416.50120544 436.74167847 416.50120544 458.50167847 416.50120544 C458.62542847 430.48495544 458.62542847 430.48495544 458.75167847 444.75120544 C458.78809448 447.66996521 458.8245105 450.58872498 458.86203003 453.59593201 C458.87372732 455.94455737 458.88391667 458.29319093 458.89230347 460.64183044 C458.91276733 461.83276306 458.9332312 463.02369568 458.95431519 464.25071716 C458.95963865 477.20269532 455.16703208 489.39969614 446.17355347 498.98167419 C441.30804663 503.55614612 436.64179125 506.88597222 430.50167847 509.50120544 C432.93555599 510.71814421 434.92006692 510.82080441 437.62667847 511.06370544 C438.99179565 511.18938904 438.99179565 511.18938904 440.38449097 511.31761169 C441.08316284 511.37819763 441.78183472 511.43878357 442.50167847 511.50120544 C442.50167847 511.83120544 442.50167847 512.16120544 442.50167847 512.50120544 C396.5893004 512.59279097 350.67693201 512.66325942 304.76448058 512.70546676 C299.34224431 512.7104695 293.92000822 512.7156468 288.49777222 512.72093201 C287.41831739 512.72198125 286.33886257 512.72303049 285.226697 512.72411153 C267.75575478 512.74150961 250.28486528 512.77304403 232.81395432 512.80981663 C214.8828629 512.84724262 196.95179906 512.86944481 179.02067018 512.87755942 C167.95909063 512.88304374 156.89766013 512.90035619 145.83612648 512.93287131 C138.247478 512.95403965 130.65890642 512.96040023 123.07023057 512.95521095 C118.69406594 512.9526528 114.3181615 512.9565327 109.9420433 512.97802734 C105.92956085 512.99759125 101.91751186 512.99841224 97.90500882 512.98480102 C96.45930486 512.9831205 95.01357308 512.98811122 93.56792328 513.00073817 C78.73350088 513.12269398 66.48188078 509.45420957 55.24777222 499.50511169 C46.86340627 490.83437272 42.37466082 479.96748842 42.37863064 467.98260021 C42.37747679 467.33862574 42.37632295 466.69465126 42.37513414 466.03116241 C42.37248465 463.87061258 42.3769759 461.71013708 42.38142395 459.54959106 C42.38098791 457.98610107 42.38011239 456.42261115 42.37883478 454.85912162 C42.37659632 450.56061414 42.38060228 446.26213153 42.38561285 441.96362722 C42.38992643 437.32904331 42.38847027 432.69446084 42.38771057 428.05987549 C42.38718591 420.02941238 42.39032666 411.99895739 42.39594841 403.96849632 C42.40407126 392.35775988 42.40667944 380.74702736 42.4079364 369.13628838 C42.41012568 350.29918494 42.41678242 331.46208583 42.42623901 312.62498474 C42.43541633 294.32518027 42.4424956 276.02537698 42.44674683 257.72557068 C42.44700955 256.59779997 42.44727227 255.47002926 42.44754296 254.30808368 C42.44884798 248.65045792 42.45011169 242.99283216 42.45135486 237.33520639 C42.46172362 190.39053556 42.48015986 143.44587274 42.50167847 96.50120544 C10.82167847 96.50120544 -20.85832153 96.50120544 -53.49832153 96.50120544 C-53.56019653 87.13745544 -53.62207153 77.77370544 -53.68582153 68.12620544 C-53.72678955 63.72075378 -53.72678955 63.72075378 -53.76858521 59.2263031 C-53.77735519 56.87262889 -53.78499791 54.51895009 -53.79129028 52.16526794 C-53.80663818 50.96410339 -53.82198608 49.76293884 -53.83779907 48.52537537 C-53.8421938 34.26595469 -49.47535986 23.03696713 -39.72097778 12.57151794 C-28.50902769 2.12804949 -14.77864673 -0.10466598 0 0 Z " fill="#E5E5E5" transform="translate(53.498321533203125,-0.5012054443359375)"/>
<path d="M0 0 C105.6 0 211.2 0 320 0 C320 69.34563758 320 69.34563758 307.671875 82.48046875 C302.80636816 87.05494067 298.14011278 90.38476678 292 93 C294.43387753 94.21693876 296.41838846 94.31959896 299.125 94.5625 C300.03507812 94.64628906 300.94515625 94.73007812 301.8828125 94.81640625 C302.58148438 94.87699219 303.28015625 94.93757813 304 95 C304 95.33 304 95.66 304 96 C189.82 96 75.64 96 -42 96 C-42 95.67 -42 95.34 -42 95 C-41.24976563 94.84144531 -40.49953125 94.68289063 -39.7265625 94.51953125 C-25.73704818 91.33048579 -15.6565328 85.79838356 -7.57421875 73.79296875 C4.56094943 52.26283166 -0.39396033 21.27385794 0 0 Z " fill="#DCD7D3" transform="translate(192,416)"/>
<path d="M0 0 C95.04 0 190.08 0 288 0 C288 10.56 288 21.12 288 32 C192.96 32 97.92 32 0 32 C0 21.44 0 10.88 0 0 Z " fill="#D1D3D4" transform="translate(128,272)"/>
<path d="M0 0 C95.04 0 190.08 0 288 0 C288 10.56 288 21.12 288 32 C192.96 32 97.92 32 0 32 C0 21.44 0 10.88 0 0 Z " fill="#D1D3D4" transform="translate(128,208)"/>
<path d="M0 0 C95.04 0 190.08 0 288 0 C288 10.56 288 21.12 288 32 C192.96 32 97.92 32 0 32 C0 21.44 0 10.88 0 0 Z " fill="#D1D3D4" transform="translate(128,144)"/>
<path d="M0 0 C95.04 0 190.08 0 288 0 C288 10.56 288 21.12 288 32 C192.96 32 97.92 32 0 32 C0 21.44 0 10.88 0 0 Z " fill="#D1D3D4" transform="translate(128,80)"/>
<path d="M0 0 C11.1273295 8.00624927 16.74813442 19.34133444 19.2421875 32.61328125 C19.60393412 37.02307156 19.59542427 41.3942204 19.53515625 45.81640625 C19.53213501 46.88552246 19.52911377 47.95463867 19.52600098 49.05615234 C19.51048475 52.99196233 19.46860317 56.92763307 19.4296875 60.86328125 C19.3678125 69.69078125 19.3059375 78.51828125 19.2421875 87.61328125 C-12.4378125 87.61328125 -44.1178125 87.61328125 -76.7578125 87.61328125 C-76.8196875 78.24953125 -76.8815625 68.88578125 -76.9453125 59.23828125 C-76.98628052 54.83282959 -76.98628052 54.83282959 -77.02807617 50.33837891 C-77.03684616 47.98470469 -77.04448888 45.63102589 -77.05078125 43.27734375 C-77.06612915 42.0761792 -77.08147705 40.87501465 -77.09729004 39.63745117 C-77.10168476 25.37803049 -72.73485083 14.14904294 -62.98046875 3.68359375 C-45.56077948 -12.54212736 -19.32691303 -12.44208619 0 0 Z " fill="#DCD7D3" transform="translate(76.7578125,8.38671875)"/>
<path d="M0 0 C0 0.33 0 0.66 0 1 C-8.91 1 -17.82 1 -27 1 C-27 0.67 -27 0.34 -27 0 C-17.61874194 -2.58382107 -9.41951741 -1.5364332 0 0 Z " fill="#E5E5E4" transform="translate(496,511)"/>
</svg>
