<svg width="16" height="16" viewBox="0 0 16 16" fill="none" xmlns="http://www.w3.org/2000/svg">
<path d="M8.23336 10.4664L11.8474 6.85339C11.894 6.8071 11.931 6.75203 11.9563 6.69136C11.9816 6.63069 11.9946 6.56562 11.9946 6.49989C11.9946 6.43417 11.9816 6.3691 11.9563 6.30843C11.931 6.24776 11.894 6.19269 11.8474 6.14639C11.7536 6.05266 11.6264 6 11.4939 6C11.3613 6 11.2341 6.05266 11.1404 6.14639L7.99236 9.29339L4.84736 6.14739C4.75305 6.05631 4.62675 6.00592 4.49566 6.00706C4.36456 6.0082 4.23915 6.06078 4.14645 6.15348C4.05374 6.24619 4.00116 6.37159 4.00002 6.50269C3.99888 6.63379 4.04928 6.76009 4.14036 6.85439L7.75236 10.4674L8.23336 10.4664Z" fill="black"/>
</svg>
