<svg fill="#000000" width="16px" height="16px" viewBox="-0.01 -0.04 0.48 0.48" xmlns="http://www.w3.org/2000/svg" preserveAspectRatio="xMinYMin" class="jam jam-undo"><path d="m0.106 0.152 0.027 -0.018a0.02 0.02 0 0 1 0.027 0.005 0.02 0.02 0 0 1 -0.005 0.028l-0.066 0.045a0.02 0.02 0 0 1 -0.027 -0.005L0.018 0.14a0.02 0.02 0 0 1 0.005 -0.028 0.02 0.02 0 0 1 0.027 0.005l0.017 0.025C0.092 0.06 0.168 0 0.257 0c0.109 0 0.198 0.09 0.198 0.2s-0.088 0.2 -0.198 0.2a0.02 0.02 0 0 1 -0.02 -0.02c0 -0.011 0.009 -0.02 0.02 -0.02 0.087 0 0.158 -0.072 0.158 -0.16s-0.071 -0.16 -0.158 -0.16C0.186 0.04 0.126 0.087 0.106 0.152"/></svg>