<svg fill="#000000" width="16px" height="16px" viewBox="-0.02 -0.04 0.48 0.48" xmlns="http://www.w3.org/2000/svg" preserveAspectRatio="xMinYMin" class="jam jam-redo"><path d="m0.387 0.145 0.017 -0.025a0.02 0.02 0 0 1 0.028 -0.005c0.009 0.006 0.012 0.019 0.006 0.028L0.393 0.208a0.02 0.02 0 0 1 -0.028 0.005L0.299 0.168a0.02 0.02 0 0 1 -0.006 -0.028 0.02 0.02 0 0 1 0.028 -0.005l0.027 0.018C0.329 0.088 0.268 0.04 0.197 0.04c-0.087 0 -0.158 0.072 -0.158 0.16s0.071 0.16 0.158 0.16c0.011 0 0.02 0.009 0.02 0.02s-0.009 0.02 -0.02 0.02C0.088 0.4 0 0.31 0 0.2S0.088 0 0.197 0c0.09 0 0.166 0.061 0.19 0.145"/></svg>