<svg xmlns="http://www.w3.org/2000/svg" viewBox="0 0 4.233 4.233" height="16" width="16" fill="rgba(255,255,255,1)"><path d="M.15 2.992c-.198.1-.2.266-.002.365l1.604.802a.93.93 0 00.729-.001l1.602-.801c.198-.1.197-.264 0-.364l-.695-.348c-1.306.595-2.542 0-2.542 0m-.264.53l.658-.329c.6.252 1.238.244 1.754 0l.659.329-1.536.768zM.15 1.935c-.198.1-.198.265 0 .364l1.604.802a.926.926 0 00.727 0l1.603-.802c.198-.099.198-.264 0-.363l-.694-.35c-1.14.56-2.546.001-2.546.001m-.264.53l.664-.332c.52.266 1.261.235 1.75.002l.659.33-1.537.768zM.15.877c-.198.099-.198.264 0 .363l1.604.802a.926.926 0 00.727 0l1.603-.802c.198-.099.198-.264 0-.363L2.481.075a.926.926 0 00-.727 0zm.43.182L2.117.29l1.538.769-1.538.768z"/></svg>