<svg width="16" height="16" viewBox="0 0 16 16" fill="none" xmlns="http://www.w3.org/2000/svg">
<path d="M10.803 4.74998V6.02436C10.803 6.39302 10.3571 6.57793 10.0967 6.31753L7.87716 4.098C7.71566 3.93649 7.71566 3.67434 7.87716 3.51283L10.0967 1.29329C10.3571 1.0329 10.8036 1.21722 10.8036 1.58588V3.24998H15V4.74998H10.803ZM8 1.24998H3V2.74998H6.5L8 1.24998ZM6.5 5.24998H3V6.74998H8L6.5 5.24998ZM3 13.25H15V14.75H3V13.25ZM6 9.24998H15V10.75H6V9.24998ZM1.5 5.24998H0V6.74998H1.5V5.24998ZM0 13.25H1.5V14.75H0V13.25ZM1.5 1.24998H0V2.74998H1.5V1.24998ZM3 9.24998H4.5V10.75H3V9.24998Z" fill="black"/>
</svg>
