<?xml version="1.0" encoding="UTF-8" standalone="no"?>
<svg
   xmlns="http://www.w3.org/2000/svg"
   width="40"
   height="40"
   viewBox="0 0 40 40">
  <g
     transform="translate(0,-60)"
     id="layer1">
    <rect
       width="36.460953"
       height="34.805603"
       x="1.7695236"
       y="62.597198"
       style="fill:#ffff00;fill-opacity:1;fill-rule:evenodd;stroke:#000000;stroke-width:1.30826771;stroke-opacity:1" />
    <g
       transform="matrix(0.88763677,0,0,0.88763677,2.2472646,8.9890584)">
      <path
         d="M 20,64.526342 C 11.454135,64.526342 4.5263421,71.454135 4.5263421,80 4.5263421,88.545865 11.454135,95.473658 20,95.473658 28.545865,95.473658 35.473658,88.545865 35.473658,80 35.473658,71.454135 28.545865,64.526342 20,64.526342 z m -0.408738,9.488564 c 3.527079,0 6.393832,2.84061 6.393832,6.335441 0,3.494831 -2.866753,6.335441 -6.393832,6.335441 -3.527079,0 -6.393832,-2.84061 -6.393832,-6.335441 0,-3.494831 2.866753,-6.335441 6.393832,-6.335441 z"
         style="fill:#ffffff;fill-opacity:1;fill-rule:nonzero;stroke:#000000;stroke-width:1.02768445;stroke-miterlimit:4;stroke-opacity:1;stroke-dasharray:none" />
      <path
         d="m 7.2335209,71.819938 4.9702591,4.161823 c -1.679956,2.581606 -1.443939,6.069592 0.159325,8.677725 l -5.1263071,3.424463 c 0.67516,1.231452 3.0166401,3.547686 4.2331971,4.194757 l 3.907728,-4.567277 c 2.541952,1.45975 5.730694,1.392161 8.438683,-0.12614 l 3.469517,6.108336 c 1.129779,-0.44367 4.742234,-3.449633 5.416358,-5.003859 l -5.46204,-4.415541 c 1.44319,-2.424098 1.651175,-5.267515 0.557303,-7.748623 l 5.903195,-3.833951 C 33.14257,71.704996 30.616217,69.018606 29.02952,67.99296 l -4.118813,4.981678 C 22.411934,71.205099 18.900853,70.937534 16.041319,72.32916 l -3.595408,-5.322091 c -1.345962,0.579488 -4.1293881,2.921233 -5.2123901,4.812869 z m 8.1010311,3.426672 c 2.75284,-2.446266 6.769149,-2.144694 9.048998,0.420874 2.279848,2.56557 2.113919,6.596919 -0.638924,9.043185 -2.752841,2.446267 -6.775754,2.13726 -9.055604,-0.428308 -2.279851,-2.565568 -2.107313,-6.589485 0.64553,-9.035751 z"
         style="fill:#000000;fill-opacity:1;stroke:none" />
    </g>
  </g>
</svg>
