<svg width="16" height="16" viewBox="0 0 16 16" fill="none" xmlns="http://www.w3.org/2000/svg">
<path d="M3.4105 4.83612L4.77001 6.19601C5.06701 6.49201 4.85701 7.00001 4.43701 7.00001H0.862006C0.602006 7.00001 0.391006 6.78901 0.391006 6.52901V2.95401C0.391006 2.53401 0.899006 2.32401 1.19601 2.62101L2.32796 3.75328C3.67958 1.78973 5.9401 0.5 8.5 0.5C12.636 0.5 16 3.864 16 8C16 12.136 12.636 15.5 8.5 15.5C4.704 15.5 1.566 12.663 1.075 9H2.59C3.068 11.833 5.532 14 8.5 14C11.809 14 14.5 11.309 14.5 8C14.5 4.691 11.809 2 8.5 2C6.35262 2 4.46893 3.13503 3.4105 4.83612Z" fill="black"/>
</svg>
