<svg width="16" height="16" viewBox="0 0 16 16" fill="none" xmlns="http://www.w3.org/2000/svg">
<path d="M8.36645 2.34562C8.13878 2.21813 7.86122 2.21813 7.63355 2.34562L1.38355 5.84562C1.14669 5.97826 1 6.22853 1 6.5C1 6.77147 1.14669 7.02174 1.38355 7.15438L7.63355 10.6544C7.86122 10.7819 8.13878 10.7819 8.36645 10.6544L14.6165 7.15438C14.8533 7.02174 15 6.77147 15 6.5C15 6.22853 14.8533 5.97826 14.6165 5.84562L8.36645 2.34562ZM8 9.14041L3.28499 6.5L8 3.85959L12.715 6.5L8 9.14041ZM1.63647 9.0766L7.99999 12.6404L14.3255 9.09761L15.0585 10.4063L8.36649 14.1543C8.13881 14.2818 7.86122 14.2819 7.63353 14.1543L0.903534 10.3853L1.63647 9.0766Z" fill="black"/>
</svg>
