<?xml version="1.0" encoding="UTF-8" standalone="no"?>
<svg
   xmlns="http://www.w3.org/2000/svg"
   width="64"
   height="64">
  <path
     d="M 4.8364028,0.4891005 32.096378,4.5726641 59.163597,0.4891005 54.680408,57.805097 32.096378,63.510899 8.3116209,57.805097 z"
     style="fill:#e5e7e8;fill-opacity:1;fill-rule:nonzero;stroke:#cccccc" />
  <path
     d="M 32.096378,10.745857 53.925414,6.8301117 51.016574,53.81906 32.096378,58.517955 z"
     style="fill:#ffffff;fill-opacity:1;fill-rule:nonzero;stroke:none" />
  <rect
     width="34.027256"
     height="19.136194"
     x="3.7557135"
     y="22.431904"
     style="fill:#ff2600;fill-opacity:1;fill-rule:nonzero;stroke:none" />
  <rect
     width="23.480518"
     height="19.136194"
     x="36.763767"
     y="22.431904"
     style="fill:#ff501a;fill-opacity:1;fill-rule:nonzero;stroke:none" />
  <g transform="matrix(0.42778543,0,0,0.42778543,58.617711,9.6737064)">
    <path
       d="m -120.53125,34.59375 0,35.1875 6.53125,0 0,-5.9375 0,-5.96875 8.875,0 4.15625,-3.71875 0,-7.71875 0,-7.71875 -4.21875,-4.125 -15.34375,0 z m 6.53125,6.8125 6.21875,0 0,10.21875 -6.21875,0 0,-10.21875 z"
       style="fill:#ffffff;fill-opacity:1" />
    <path
       d="m -98.125,34.59375 0,35.1875 16.125,0 3.75,-3.625 0,-27.96875 -3.96875,-3.59375 -15.90625,0 z m 6.8125,6.8125 6.8125,0 0,21.5625 -6.8125,0 0,-21.5625 z"       id="path3056"
       style="fill:#ffffff;fill-opacity:1" />
    <path
       d="m -74.856072,34.602929 c 5.485697,0 10.971394,0 16.457091,0 0,2.269943 0,4.539887 0,6.80983 -3.404915,0 -6.809831,0 -10.214746,0 0,2.472069 0,4.944138 0,7.416206 2.93201,0.110496 5.864021,-0.110494 8.796031,0 l 0,3.366025 0,3.375914 c -2.93201,0.110495 -5.864021,-0.110495 -8.796031,0 l 0,7.146446 0,7.069702 c -2.080782,0 -4.161563,0 -6.242345,0 0,-11.728041 0,-23.456082 0,-35.184123 z"
       style="fill:#ffffff;fill-opacity:1" />
    <path
       d="m -42.8813,67.942723 -2.181762,-1.844329 c 0,-1.986871 0,-3.973742 0,-5.960613 2.175363,6.7e-4 4.350725,0.0013 6.526088,0.002 0,0.94581 0,1.891619 0,2.837429 1.891619,0 3.783239,0 5.674858,0 0,-9.458098 0,-18.916195 0,-28.374293 2.175363,-1.26e-4 4.350725,-2.52e-4 6.526088,-3.78e-4 0,10.498614 0,20.997229 0,31.495843 -1.454508,1.229554 -2.909019,2.459106 -4.363529,3.688658 -3.333325,0 -6.666651,0 -9.999976,0 -0.727237,-0.614768 -1.454563,-1.229595 -2.181767,-1.844308 z"
       style="fill:#ffffff;fill-opacity:1" />
    <path
       d="m -21.316836,67.942723 -2.109122,-1.844329 0,-5.978379 c 2.061011,0 4.392437,0.01978 6.453448,0.01978 0,0.94581 0,1.891619 0,2.837429 2.269943,0 4.539887,0 6.80983,0 0,-2.459105 0,-4.918211 0,-7.377316 -3.196954,0 -6.393909,0 -9.590863,0 l -3.745055,-3.688659 0,-6.80983 0,-6.80983 3.745055,-3.688658 c 3.863156,0 7.726313,0 11.5894692,0 l 4.2511106,3.688658 c -0.00204,1.797039 -0.00472,3.594077 -0.00737,5.391115 -2.0807816,0 -4.1615632,0 -6.2423448,0 0,-0.756648 0,-1.513295 0,-2.269943 -2.269943,0 -4.539887,0 -6.80983,0 0,2.459105 0,4.918211 0,7.377316 2.990126,0 5.980253,0 8.9703792,0 1.3605964,1.204585 4.0817956,3.613749 4.0817956,3.613749 0,4.555246 0,9.110492 0,13.665738 l -2.0892845,1.858745 -2.0892901,1.858745 -5.5180792,0 -5.51808,0 z"
       style="fill:#ffffff;fill-opacity:1" />
  </g>
</svg>
